# xmcd CD database file
#
# Track frame offsets:
#	150
#	14200
#	21670
#	39831
#	67157
#	82339
#	114907
#	129865
#	141654
#	171083
#	182485
#	201069
#	212771
#	227140
#
# Disc length: 3258 seconds
#
# Revision: 0
# Processed by: cddbd v1.5.2PL0 Copyright (c) Steve Scherf et al.
# Submitted via: CDex 1.70beta2
#
DISCID=cf0cb80e
DTITLE=Bush, Shawn - Cdn. -  - You Asked For It
DYEAR=2003
DGENRE=Country
TTITLE0=Se3asons
TTITLE1=40 Theive
TTITLE2=Safe From the World
TTITLE3=Who's Gonna Love Me
TTITLE4=More Than Words
TTITLE5=Jacket and Jeans
TTITLE6=The Wooded Hill
TTITLE7=Shuffle Your Feet
TTITLE8=Stay
TTITLE9=Baby Blue
TTITLE10=Not For You
TTITLE11=My Dog Bill
TTITLE12=The Beach Strip Blues
TTITLE13=The Shadow
EXTD=YEAR: 2003
EXTT0=
EXTT1=
EXTT2=
EXTT3=
EXTT4=
EXTT5=
EXTT6=
EXTT7=
EXTT8=
EXTT9=
EXTT10=
EXTT11=
EXTT12=
EXTT13=
PLAYORDER=
